<svg width="1600" height="900" viewBox="0 0 1600 900" fill="none" xmlns="http://www.w3.org/2000/svg">
  <rect width="1600" height="900" rx="40" fill="#EEF4FF"/>
  <rect x="0" y="0" width="1600" height="900" rx="40" fill="url(#paint0_linear)"/>
  <circle cx="1300" cy="160" r="220" fill="#DCE8FF"/>
  <circle cx="250" cy="740" r="240" fill="#E5EEFF"/>
  <rect x="880" y="170" width="420" height="500" rx="28" fill="#FFFFFF"/>
  <rect x="920" y="220" width="180" height="24" rx="12" fill="#274690"/>
  <rect x="920" y="270" width="240" height="16" rx="8" fill="#C5D4F5"/>
  <rect x="920" y="304" width="210" height="16" rx="8" fill="#D9E4FB"/>
  <rect x="920" y="354" width="300" height="92" rx="20" fill="#F4F7FF"/>
  <rect x="946" y="384" width="90" height="12" rx="6" fill="#8FA8E8"/>
  <rect x="946" y="408" width="150" height="10" rx="5" fill="#D0DCF8"/>
  <circle cx="1168" cy="400" r="28" fill="#3B82F6"/>
  <path d="M1158 400L1165 407L1179 393" stroke="white" stroke-width="6" stroke-linecap="round" stroke-linejoin="round"/>
  <rect x="920" y="470" width="300" height="92" rx="20" fill="#F4F7FF"/>
  <rect x="946" y="500" width="90" height="12" rx="6" fill="#8FA8E8"/>
  <rect x="946" y="524" width="170" height="10" rx="5" fill="#D0DCF8"/>
  <circle cx="1168" cy="516" r="28" fill="#10B981"/>
  <path d="M1158 516L1165 523L1179 509" stroke="white" stroke-width="6" stroke-linecap="round" stroke-linejoin="round"/>
  <rect x="920" y="614" width="180" height="18" rx="9" fill="#D9E4FB"/>
  <g filter="url(#filter0_d)">
    <rect x="205" y="210" width="510" height="340" rx="28" fill="#FFFFFF"/>
  </g>
  <rect x="255" y="258" width="410" height="230" rx="20" fill="#F7F9FE"/>
  <rect x="295" y="300" width="180" height="18" rx="9" fill="#2F5BD1"/>
  <rect x="295" y="338" width="250" height="14" rx="7" fill="#C9D8FB"/>
  <rect x="295" y="366" width="220" height="14" rx="7" fill="#DCE6FD"/>
  <rect x="295" y="416" width="150" height="38" rx="19" fill="#FFB84D"/>
  <rect x="512" y="294" width="108" height="146" rx="18" fill="#E4ECFD"/>
  <rect x="537" y="326" width="58" height="58" rx="16" fill="#2F5BD1"/>
  <path d="M500 603C500 531.203 558.203 473 630 473H716C787.797 473 846 531.203 846 603V650H500V603Z" fill="#274690"/>
  <circle cx="674" cy="437" r="88" fill="#FFD7B8"/>
  <path d="M606 431C606 392.34 637.34 361 676 361C714.66 361 746 392.34 746 431V453H606V431Z" fill="#1F2937"/>
  <rect x="610" y="650" width="260" height="32" rx="16" fill="#1E3A8A"/>
  <rect x="120" y="690" width="1360" height="28" rx="14" fill="#C4D6FF"/>
  <defs>
    <filter id="filter0_d" x="165" y="190" width="590" height="420" filterUnits="userSpaceOnUse" color-interpolation-filters="sRGB">
      <feFlood flood-opacity="0" result="BackgroundImageFix"/>
      <feColorMatrix in="SourceAlpha" type="matrix" values="0 0 0 0 0 0 0 0 0 0 0 0 0 0 0 0 0 0 127 0" result="hardAlpha"/>
      <feOffset dy="20"/>
      <feGaussianBlur stdDeviation="20"/>
      <feColorMatrix type="matrix" values="0 0 0 0 0.109804 0 0 0 0 0.223529 0 0 0 0 0.541176 0 0 0 0.12 0"/>
      <feBlend mode="normal" in2="BackgroundImageFix" result="effect1_dropShadow"/>
      <feBlend mode="normal" in="SourceGraphic" in2="effect1_dropShadow" result="shape"/>
    </filter>
    <linearGradient id="paint0_linear" x1="120" y1="90" x2="1450" y2="860" gradientUnits="userSpaceOnUse">
      <stop stop-color="#F8FBFF"/>
      <stop offset="1" stop-color="#DCE7FF"/>
    </linearGradient>
  </defs>
</svg>
